<?xml version="1.0" standalone="no"?>
<!DOCTYPE svg PUBLIC "-//W3C//DTD SVG 20010904//EN"
 "http://www.w3.org/TR/2001/REC-SVG-20010904/DTD/svg10.dtd">
<svg version="1.0" xmlns="http://www.w3.org/2000/svg"
 width="869.000000pt" height="869.000000pt" viewBox="0 0 869.000000 869.000000"
 preserveAspectRatio="xMidYMid meet">
<metadata>
Created by potrace 1.14, written by Peter Selinger 2001-2017
</metadata>
<g transform="translate(0.000000,869.000000) scale(0.100000,-0.100000)"
fill="#000000" stroke="none">
<path d="M2865 7405 c-76 -16 -123 -36 -177 -73 -103 -71 -178 -174 -212 -291
-14 -48 -16 -319 -16 -2702 l-1 -2649 25 -70 c87 -250 348 -395 604 -335 141
33 232 101 345 258 40 56 565 775 1167 1597 601 822 1104 1513 1117 1535 57
98 79 257 52 375 -29 128 -145 276 -260 333 -201 100 -438 68 -592 -82 -27
-25 -357 -469 -735 -985 l-687 -939 -5 1809 -5 1809 -23 66 c-46 136 -139 242
-267 304 -111 53 -213 66 -330 40z"/>
<path d="M5216 2975 c-335 -64 -612 -336 -680 -667 -81 -394 123 -793 491
-960 118 -53 220 -71 378 -66 124 4 151 8 235 37 354 120 590 444 590 810 0
396 -266 735 -655 836 -88 23 -263 28 -359 10z"/>
</g>
</svg>
