<?xml version="1.0" encoding="UTF-8" standalone="no"?>
<!-- Created with Inkscape (http://www.inkscape.org/) -->

<svg
   width="61.471634mm"
   height="100.00102mm"
   viewBox="0 0 61.471635 100.00102"
   version="1.1"
   id="svg5"
   xmlns="http://www.w3.org/2000/svg"
   xmlns:svg="http://www.w3.org/2000/svg">
  <defs
     id="defs2" />
  <g
     id="layer1"
     transform="translate(-57.369446,-67.770851)"
     style="fill:#000000">
    <path
       id="rect31"
       style="fill:none;fill-rule:evenodd;stroke-width:0.245412"
       d="m 65.76014,67.77106 c -4.648417,0 -8.390694,3.742277 -8.390694,8.390692 v 83.218238 c 0,0.0134 9.22e-4,0.0266 9.84e-4,0.04 3.79e-4,0.0682 0.0031,0.13618 0.0052,0.20428 0.0022,0.0768 0.0036,0.15386 0.0078,0.23013 8.6e-4,0.0151 0.0024,0.03 0.0033,0.0451 0.251809,4.15823 3.504405,7.47867 7.632083,7.83707 0.03475,0.003 0.06951,0.006 0.104276,0.008 0.09181,0.007 0.183702,0.0134 0.276332,0.0173 0.07063,0.003 0.141255,0.004 0.211871,0.006 0.04972,0.001 0.0989,0.004 0.148831,0.004 0.01502,0 0.02978,-0.001 0.04479,-0.001 0.08597,-3.6e-4 0.171762,-0.003 0.257611,-0.006 0.05301,-0.002 0.106274,-0.002 0.159021,-0.006 0.082,-0.004 0.16373,-0.0116 0.245523,-0.0185 0.05892,-0.005 0.118235,-0.008 0.176796,-0.0144 0.04548,-0.005 0.09064,-0.0118 0.136034,-0.0173 2.472416,-0.29722 4.607841,-1.65918 5.934273,-3.61933 l 37.181659,-50.84268 c 2.74396,-3.75212 1.93225,-8.9819 -1.81986,-11.72587 -3.75212,-2.74398 -8.981669,-1.932266 -11.72564,1.81985 L 74.150817,133.69508 V 76.161543 c 0,-4.648415 -3.742278,-8.390692 -8.390693,-8.390692 z m 39.09961,72.03743 a 13.981112,13.981112 0 0 0 -13.981089,13.9811 13.981112,13.981112 0 0 0 13.981089,13.98109 13.981112,13.981112 0 0 0 13.98133,-13.98109 13.981112,13.981112 0 0 0 -13.98133,-13.9811 z" />
  </g>
</svg>
