<?xml version="1.0" encoding="UTF-8" standalone="no"?>
<!-- Created with Inkscape (http://www.inkscape.org/) -->

<svg
    width="134.03963mm"
    height="218.05092mm"
    viewBox="0 0 134.03963 218.05092"
    version="1.1"
    id="svg5"
    xmlns="http://www.w3.org/2000/svg"
>
  <defs
      id="defs2"/>
  <g
      id="layer1"
      transform="translate(-37.980186,-39.474538)"
      style="fill:#ffffff">
    <g
        id="g7267"
        transform="matrix(0.82097308,0,0,0.82097308,16.361964,32.484136)"
        style="fill:#ffffff">
      <path
          id="rect31"
          style="fill-rule:evenodd;stroke-width:0.651818;fill:#ffffff"
          d="m 48.618149,8.5147762 c 12.346257,0 22.285663,9.9394058 22.285663,22.2856638 v 221.0292 c 0,12.34626 -9.939406,22.28566 -22.285663,22.28566 -12.346258,0 -22.285664,-9.9394 -22.285664,-22.28566 V 30.80044 c 0,-12.346258 9.939406,-22.2856638 22.285664,-22.2856638 z"/>
      <path
          id="path535"
          style="opacity:1;fill-rule:evenodd;stroke-width:0.656529;fill:#ffffff"
          d="m 189.60165,236.98132 a 37.134029,37.134029 0 0 1 -37.13403,37.13403 37.134029,37.134029 0 0 1 -37.13403,-37.13403 37.134029,37.134029 0 0 1 37.13403,-37.13403 37.134029,37.134029 0 0 1 37.13403,37.13403 z"/>
      <path
          id="rect31-7"
          style="opacity:1;fill-rule:evenodd;stroke-width:0.651818;fill:#ffffff"
          transform="rotate(36.178456)"
          d="m 187.90365,-15.817813 c 12.34626,0 22.28567,9.9394077 22.28567,22.2856675 V 174.54493 c 0,12.34626 -9.93941,22.28566 -22.28567,22.28566 -12.34626,0 -22.28567,-9.9394 -22.28567,-22.28566 V 6.4678545 c 0,-12.3462598 9.93941,-22.2856675 22.28567,-22.2856675 z"/>
    </g>
  </g>
</svg>
