<svg id="screenshot" viewBox="148.49999999999994 563 1920.5 656.7338514246767" width="1920.5" height="656.7338514246767" version="1.1" xmlns="http://www.w3.org/2000/svg" xmlns:xlink="http://www.w3.org/1999/xlink" style="-webkit-print-color-adjust: exact;"><g id="shape-0b627290-ca6d-11ec-a45b-9be535c4f528"><g clip-path="url(#27117160-cec0-11ec-9307-03fd74354a4b-f2adfc10-ca6c-11ec-a45b-9be535c4f528-clip)"><g mask="url(#27117160-cec0-11ec-9307-03fd74354a4b-f2adfc10-ca6c-11ec-a45b-9be535c4f528-mask)"><defs><filter id="27117160-cec0-11ec-9307-03fd74354a4b-f2adfc10-ca6c-11ec-a45b-9be535c4f528-filter"><feFlood flood-color="white" result="FloodResult"/><feComposite in="FloodResult" in2="SourceGraphic" operator="in" result="comp"/></filter><clipPath id="27117160-cec0-11ec-9307-03fd74354a4b-f2adfc10-ca6c-11ec-a45b-9be535c4f528-clip" class="mask-clip-path"><polyline points="148.49999999999994,563 2069,563 2069,1219.7338514246767 148.49999999999994,1219.7338514246767"/></clipPath><mask id="27117160-cec0-11ec-9307-03fd74354a4b-f2adfc10-ca6c-11ec-a45b-9be535c4f528-mask" class="mask-shape"><g filter="url(#27117160-cec0-11ec-9307-03fd74354a4b-f2adfc10-ca6c-11ec-a45b-9be535c4f528-filter)"><g id="shape-f2adfc10-ca6c-11ec-a45b-9be535c4f528"><rect rx="0" ry="0" x="148" y="563" transform="matrix(1,0,0,1,0,0)" width="1921" height="657" style="fill: rgb(177, 178, 181); fill-opacity: 1;"/></g></g></mask></defs><g id="shape-07675020-ca6d-11ec-a45b-9be535c4f528"><g id="shape-77acfda1-ca6b-11ec-a45b-9be535c4f528"><path d="M-359.9999999999995,855.2177069357914C-359.9999999999995,855.2177069357914,45.13763145844814,515.1749238966318,487.1711899791237,596.2177069357914C822.8947853804066,657.7695430902943,985.7773539064738,1019.4654586114748,1302.3154110153203,1090.445199552089C1707.951694542108,1181.4041160416687,2069,924.2177069357914,2069,924.2177069357914" style="fill: none; stroke-width: 2; stroke: rgb(0, 0, 0); stroke-opacity: 1;"/></g><g id="shape-4eb55c70-ca6c-11ec-a45b-9be535c4f528"><path d="M-266.49999999999903,869.7177069357912C-266.49999999999903,869.7177069357912,138.6376314584486,529.6749238966316,580.6711899791242,610.7177069357912C916.394785380407,672.2695430902942,1079.2773539064742,1033.9654586114748,1395.815411015321,1104.945199552089C1801.4516945421083,1195.9041160416687,2162.500000000001,938.7177069357912,2162.500000000001,938.7177069357912" style="fill: none; stroke-width: 2; stroke: rgb(0, 0, 0); stroke-opacity: 1;"/></g><g id="shape-53e9e940-ca6c-11ec-a45b-9be535c4f528"><path d="M-172.99999999999795,883.811029257457C-172.99999999999795,883.811029257457,232.13763145844973,543.7682462182975,674.1711899791253,624.811029257457C1009.8947853804082,686.36286541196,1172.7773539064754,1048.0587809331405,1489.315411015322,1119.0385218737547C1894.9516945421094,1209.9974383633344,2256.000000000002,952.811029257457,2256.000000000002,952.811029257457" style="fill: none; stroke-width: 2; stroke: rgb(0, 0, 0); stroke-opacity: 1;"/></g><g id="shape-5f945c82-ca6c-11ec-a45b-9be535c4f528"><path d="M99.71821818428492,926.4976739007885C99.71821818428492,926.4976739007885,504.8558496427326,586.454890861629,946.8894081634082,667.4976739007885C1282.613003564691,729.0495100552915,1445.4955720907583,1090.745425576472,1762.033629199605,1161.725166517086C2167.669912726392,1252.6840830066658,2528.7182181842845,995.4976739007885,2528.7182181842845,995.4976739007885" style="fill: none; stroke-width: 2; stroke: rgb(0, 0, 0); stroke-opacity: 1;"/></g><g id="shape-5f945c80-ca6c-11ec-a45b-9be535c4f528"><path d="M-87.28178181571661,897.9043515791228C-87.28178181571661,897.9043515791228,317.855849642731,557.8615685399633,759.8894081634066,638.9043515791228C1095.6130035646895,700.4561877336258,1258.4955720907567,1062.1521032548062,1575.0336291996032,1133.1318441954204C1980.669912726391,1224.090760685,2341.7182181842827,966.9043515791228,2341.7182181842827,966.9043515791228" style="fill: none; stroke-width: 2; stroke: rgb(0, 0, 0); stroke-opacity: 1;"/></g><g id="shape-5f945c81-ca6c-11ec-a45b-9be535c4f528"><path d="M6.218218184283842,912.4043515791228C6.218218184283842,912.4043515791228,411.35584964273147,572.3615685399633,853.3894081634071,653.4043515791228C1189.11300356469,714.9561877336256,1351.9955720907572,1076.6521032548062,1668.5336291996039,1147.6318441954204C2074.169912726391,1238.590760685,2435.2182181842836,981.4043515791228,2435.2182181842836,981.4043515791228" style="fill: none; stroke-width: 2; stroke: rgb(0, 0, 0); stroke-opacity: 1;"/></g><g id="shape-76e72020-ca6c-11ec-a45b-9be535c4f528"><path d="M-312.4999999999998,862.2643680966244C-312.4999999999998,862.2643680966244,92.63763145844791,522.2215850574648,534.6711899791235,603.2643680966244C870.3947853804063,664.8162042511274,1033.2773539064735,1026.5121197723079,1349.81541101532,1097.491860712922C1755.4516945421076,1188.4507772025017,2116.5,931.2643680966244,2116.5,931.2643680966244" style="fill: none; stroke-width: 2; stroke: rgb(0, 0, 0); stroke-opacity: 1;"/></g><g id="shape-76e72021-ca6c-11ec-a45b-9be535c4f528"><path d="M-218.99999999999932,876.7643680966244C-218.99999999999932,876.7643680966244,186.13763145844837,536.7215850574648,628.1711899791239,617.7643680966244C963.8947853804068,679.3162042511271,1126.777353906474,1041.0121197723079,1443.3154110153207,1111.991860712922C1848.951694542108,1202.9507772025017,2210.000000000001,945.7643680966244,2210.000000000001,945.7643680966244" style="fill: none; stroke-width: 2; stroke: rgb(0, 0, 0); stroke-opacity: 1;"/></g><g id="shape-76e72022-ca6c-11ec-a45b-9be535c4f528"><path d="M-125.49999999999824,890.8576904182901C-125.49999999999824,890.8576904182901,279.6376314584495,550.8149073791305,721.6711899791251,631.8576904182901C1057.394785380408,693.4095265727931,1220.2773539064751,1055.1054420939736,1536.8154110153218,1126.0851830345878C1942.451694542109,1217.0440995241674,2303.500000000002,959.8576904182901,2303.500000000002,959.8576904182901" style="fill: none; stroke-width: 2; stroke: rgb(0, 0, 0); stroke-opacity: 1;"/></g><g id="shape-76e72023-ca6c-11ec-a45b-9be535c4f528"><path d="M147.21821818428464,933.5443350616215C147.21821818428464,933.5443350616215,552.3558496427323,593.501552022462,994.389408163408,674.5443350616215C1330.1130035646909,736.0961712161247,1492.995572090758,1097.792086737305,1809.5336291996048,1168.7718276779192C2215.169912726392,1259.7307441674989,2576.2182181842845,1002.5443350616215,2576.2182181842845,1002.5443350616215" style="fill: none; stroke-width: 2; stroke: rgb(0, 0, 0); stroke-opacity: 1;"/></g><g id="shape-76e72024-ca6c-11ec-a45b-9be535c4f528"><path d="M-39.7817818157169,904.9510127399558C-39.7817818157169,904.9510127399558,365.35584964273073,564.9082297007963,807.3894081634064,645.9510127399558C1143.1130035646893,707.502848894459,1305.9955720907565,1069.1987644156393,1622.533629199603,1140.1785053562535C2028.1699127263907,1231.1374218458332,2389.2182181842827,973.9510127399558,2389.2182181842827,973.9510127399558" style="fill: none; stroke-width: 2; stroke: rgb(0, 0, 0); stroke-opacity: 1;"/></g><g id="shape-76e72025-ca6c-11ec-a45b-9be535c4f528"><path d="M53.71821818428356,919.4510127399558C53.71821818428356,919.4510127399558,458.8558496427312,579.4082297007963,900.8894081634069,660.4510127399558C1236.6130035646897,722.0028488944586,1399.495572090757,1083.6987644156393,1716.0336291996034,1154.6785053562535C2121.669912726391,1245.6374218458332,2482.7182181842836,988.4510127399558,2482.7182181842836,988.4510127399558" style="fill: none; stroke-width: 2; stroke: rgb(0, 0, 0); stroke-opacity: 1;"/></g></g></g></g></g></svg>