<?xml version="1.0" encoding="utf-8"?>
<svg width="230mm" height="230mm" version="1.2" baseProfile="tiny-ps" viewBox="0 0 230 230"
     xmlns="http://www.w3.org/2000/svg">
    <title>Kubczyk</title>
    <rect transform="translate(10 -33.5)" x="-10" y="33.5" width="230" height="230" ry="0" fill="#f9f9f9"
          fill-rule="evenodd" stroke-width=".68982"/>
    <g transform="matrix(.61249 0 0 .61249 48.872 28.447)" fill-rule="evenodd">
        <circle cx="152.47" cy="236.98" r="37.134" fill="#3890a8" stroke-width=".65653"/>
        <path d="m48.618 8.5152c-12.346 0-22.285 9.9389-22.285 22.285v221.03c0 0.01996 0.003323 0.03912 0.003375 0.05906 0.002361 0.68746 0.037244 1.3732 0.10293 2.0561 0.009311 0.09968 0.017233 0.1994 0.027842 0.29868 0.063826 0.58137 0.15394 1.1593 0.26324 1.7338 0.052944 0.28311 0.11455 0.56201 0.17802 0.84118 0.07824 0.33938 0.16487 0.67681 0.25902 1.0125 0.12587 0.45357 0.26611 0.8994 0.41933 1.3407 0.053953 0.15418 0.11051 0.30757 0.1679 0.46067 0.21732 0.58379 0.45781 1.1544 0.72138 1.7136 0.002534 0.00535 0.005054 0.01068 0.007593 0.01603 2.7555 5.834 7.9526 10.253 14.301 11.961 0.28593 0.07828 0.572 0.1537 0.85975 0.22021 0.27553 0.06244 0.55085 0.1233 0.83022 0.17549 0.5236 0.10004 1.0501 0.17694 1.5769 0.23877 0.15614 0.01778 0.31114 0.03775 0.46826 0.05231 0.65372 0.06268 1.3083 0.09404 1.9625 0.09872 0.045809 2.7e-4 0.089963 0.00675 0.13584 0.00675 0.026495 0 0.051993-0.00413 0.078465-0.00422 0.70637-0.00176 1.4111-0.03686 2.1127-0.10547 0.045975-0.00445 0.092478-0.00708 0.13837-0.01181 0.68687-0.07149 1.3705-0.17561 2.0477-0.31049 0.094145-0.01861 0.18725-0.03927 0.28096-0.05906 0.61114-0.12992 1.2175-0.28373 1.8165-0.46489 0.14569-0.04389 0.28843-0.09329 0.43283-0.14005 0.52986-0.17212 1.0548-0.36073 1.5718-0.57289 0.17781-0.07284 0.35188-0.15138 0.52732-0.22864 0.45319-0.19982 0.90081-0.41382 1.3415-0.6446 0.22042-0.11532 0.43624-0.23618 0.65219-0.35858 0.3819-0.21665 0.75856-0.4439 1.1289-0.68426 0.24735-0.16034 0.48941-0.32634 0.72982-0.4961 0.31002-0.21926 0.61524-0.44698 0.91543-0.68341 0.28797-0.22636 0.56836-0.46025 0.84456-0.70029 0.23457-0.20432 0.46543-0.414 0.69269-0.62941 0.31974-0.30234 0.62848-0.61411 0.92978-0.93484 0.1803-0.1923 0.35861-0.38733 0.53323-0.58723 0.30532-0.34911 0.59756-0.70778 0.88084-1.0757 0.11794-0.15298 0.23881-0.30212 0.35352-0.45898l0.48092-0.6581 98.735-135.01c7.288-9.9657 5.1329-23.856-4.8328-31.144-9.9657-7.288-23.856-5.132-31.144 4.8337l-58.962 80.626v-152.81c0-12.346-9.9397-22.285-22.286-22.285z"
              fill="#383838" stroke-width=".65182"/>
    </g>
</svg>
